<svg width="215" height="58" viewBox="0 0 215 58" fill="none" xmlns="http://www.w3.org/2000/svg">
    <path d="M52.08 43C51.76 43 51.6 42.84 51.6 42.52V25.432C51.6 24.568 51.568 23.672 51.504 22.744C51.472 21.784 51.392 20.92 51.264 20.152C51.2 19.768 51.376 19.576 51.792 19.576H54.672C54.96 19.576 55.12 19.688 55.152 19.912C55.216 20.392 55.296 20.904 55.392 21.448C55.488 21.992 55.552 22.552 55.584 23.128C57.024 21.688 58.384 20.648 59.664 20.008C60.944 19.336 62.32 19 63.792 19C65.424 19 66.736 19.384 67.728 20.152C68.752 20.888 69.472 21.992 69.888 23.464C71.424 21.896 72.848 20.76 74.16 20.056C75.472 19.352 76.896 19 78.432 19C80.576 19 82.192 19.672 83.28 21.016C84.4 22.36 84.96 24.344 84.96 26.968V42.52C84.96 42.84 84.8 43 84.48 43H81.36C81.04 43 80.88 42.84 80.88 42.52V27.208C80.88 25.672 80.592 24.52 80.016 23.752C79.472 22.984 78.608 22.6 77.424 22.6C76.368 22.6 75.28 22.936 74.16 23.608C73.072 24.248 71.792 25.272 70.32 26.68V42.52C70.32 42.84 70.16 43 69.84 43H66.72C66.4 43 66.24 42.84 66.24 42.52V27.208C66.24 25.672 65.952 24.52 65.376 23.752C64.832 22.984 63.968 22.6 62.784 22.6C61.728 22.6 60.64 22.936 59.52 23.608C58.432 24.248 57.152 25.272 55.68 26.68V42.52C55.68 42.84 55.52 43 55.2 43H52.08ZM105.731 43C105.539 43 105.411 42.936 105.347 42.808C105.283 42.68 105.219 42.52 105.155 42.328C105.123 42.072 105.043 41.528 104.915 40.696C104.819 39.832 104.755 39.064 104.723 38.392L104.579 36.568V27.016C104.579 25.416 104.259 24.28 103.619 23.608C102.979 22.936 101.859 22.6 100.259 22.6C97.3789 22.6 95.9389 23.592 95.9389 25.576C95.9389 25.896 95.7949 26.056 95.5069 26.056H92.3389C92.0189 26.056 91.8429 25.752 91.8109 25.144C91.6509 23.32 92.3549 21.848 93.9229 20.728C95.5229 19.576 97.6829 19 100.403 19C103.187 19 105.251 19.656 106.595 20.968C107.971 22.28 108.659 24.264 108.659 26.92V37.192C108.659 38.312 108.691 39.32 108.755 40.216C108.819 41.08 108.899 41.832 108.995 42.472C109.059 42.824 108.899 43 108.515 43H105.731ZM96.5629 43.576C94.7069 43.576 93.2829 43.016 92.2909 41.896C91.3309 40.776 90.8509 39.144 90.8509 37C90.8509 35.336 91.1709 33.976 91.8109 32.92C92.4829 31.864 93.5389 31.048 94.9789 30.472C96.4509 29.896 98.4029 29.512 100.835 29.32L105.347 28.936V32.056L100.739 32.44C98.5309 32.632 97.0109 33.032 96.1789 33.64C95.3469 34.248 94.9309 35.272 94.9309 36.712C94.9309 37.8 95.1549 38.616 95.6029 39.16C96.0509 39.704 96.7229 39.976 97.6189 39.976C98.6749 39.976 99.7789 39.624 100.931 38.92C102.083 38.184 103.603 36.84 105.491 34.888V38.488C104.371 39.704 103.315 40.696 102.323 41.464C101.363 42.2 100.419 42.728 99.4909 43.048C98.5629 43.4 97.5869 43.576 96.5629 43.576ZM116.346 43C116.026 43 115.866 42.84 115.866 42.52V25.288C115.866 24.392 115.834 23.528 115.77 22.696C115.738 21.832 115.658 20.968 115.53 20.104C115.466 19.752 115.626 19.576 116.01 19.576H118.938C119.258 19.576 119.434 19.72 119.466 20.008C119.594 20.616 119.69 21.32 119.754 22.12C119.818 22.888 119.85 23.544 119.85 24.088L119.946 26.632V42.52C119.946 42.84 119.786 43 119.466 43H116.346ZM119.418 28.072L119.322 24.136C119.994 23.144 120.762 22.264 121.626 21.496C122.522 20.728 123.418 20.12 124.314 19.672C125.242 19.224 126.09 19 126.858 19C127.434 19 127.866 19.048 128.154 19.144C128.41 19.208 128.554 19.368 128.586 19.624C128.65 20.296 128.666 20.984 128.634 21.688C128.634 22.392 128.586 23.064 128.49 23.704C128.426 24.056 128.218 24.184 127.866 24.088C127.61 24.024 127.338 23.976 127.05 23.944C126.762 23.912 126.458 23.896 126.138 23.896C125.338 23.896 124.538 24.072 123.738 24.424C122.938 24.776 122.17 25.272 121.434 25.912C120.698 26.52 120.026 27.24 119.418 28.072ZM147.674 51.88C147.354 51.88 147.194 51.72 147.194 51.4V23.128C146.394 22.968 145.53 22.84 144.602 22.744C143.674 22.648 142.858 22.6 142.154 22.6C140.01 22.6 138.458 23.128 137.498 24.184C136.538 25.208 136.058 26.856 136.058 29.128V34.408C136.058 36.36 136.362 37.784 136.97 38.68C137.61 39.544 138.618 39.976 139.994 39.976C141.146 39.976 142.298 39.672 143.45 39.064C144.602 38.456 146.074 37.368 147.866 35.8L147.722 39.688C146.25 41.064 144.826 42.056 143.45 42.664C142.074 43.272 140.618 43.576 139.082 43.576C136.682 43.576 134.89 42.84 133.706 41.368C132.554 39.896 131.978 37.656 131.978 34.648V28.744C131.978 25.512 132.794 23.08 134.426 21.448C136.058 19.816 138.506 19 141.77 19C142.954 19 144.026 19.08 144.986 19.24C145.946 19.4 146.922 19.576 147.914 19.768C148.906 19.96 150.026 20.104 151.274 20.2V51.4C151.274 51.72 151.114 51.88 150.794 51.88H147.674ZM164.811 43.576C162.763 43.576 161.195 42.888 160.107 41.512C159.019 40.136 158.475 38.152 158.475 35.56V20.056C158.475 19.736 158.635 19.576 158.955 19.576H162.075C162.395 19.576 162.555 19.736 162.555 20.056V35.368C162.555 36.936 162.827 38.104 163.371 38.872C163.947 39.608 164.827 39.976 166.011 39.976C167.195 39.976 168.379 39.608 169.563 38.872C170.779 38.136 172.283 36.856 174.075 35.032L173.979 38.824C172.955 39.88 171.931 40.76 170.907 41.464C169.883 42.168 168.859 42.696 167.835 43.048C166.843 43.4 165.835 43.576 164.811 43.576ZM174.411 43C174.059 43 173.867 42.84 173.835 42.52C173.739 41.912 173.659 41.288 173.595 40.648C173.531 40.008 173.483 39.352 173.451 38.68L173.211 36.664V20.056C173.211 19.736 173.371 19.576 173.691 19.576H176.811C177.131 19.576 177.291 19.736 177.291 20.056V37.144C177.291 38.008 177.307 38.904 177.339 39.832C177.403 40.76 177.499 41.656 177.627 42.52C177.691 42.84 177.515 43 177.099 43H174.411ZM184.971 43C184.651 43 184.491 42.84 184.491 42.52V20.056C184.491 19.736 184.651 19.576 184.971 19.576H188.091C188.411 19.576 188.571 19.736 188.571 20.056V42.52C188.571 42.84 188.411 43 188.091 43H184.971ZM186.555 15.64C185.627 15.64 184.955 15.4 184.539 14.92C184.123 14.408 183.915 13.768 183.915 13V12.52C183.915 11.752 184.123 11.128 184.539 10.648C184.955 10.136 185.627 9.88 186.555 9.88C187.483 9.88 188.155 10.136 188.571 10.648C188.987 11.128 189.195 11.752 189.195 12.52V13C189.195 13.768 188.987 14.408 188.571 14.92C188.155 15.4 187.483 15.64 186.555 15.64ZM196.268 43C195.948 43 195.788 42.84 195.788 42.52V10.696C195.788 10.376 195.948 10.216 196.268 10.216H199.388C199.708 10.216 199.868 10.376 199.868 10.696V42.52C199.868 42.84 199.708 43 199.388 43H196.268ZM207.564 43C207.244 43 207.084 42.84 207.084 42.52V10.696C207.084 10.376 207.244 10.216 207.564 10.216H210.684C211.004 10.216 211.164 10.376 211.164 10.696V42.52C211.164 42.84 211.004 43 210.684 43H207.564Z" fill="black"/>
    <path d="M52.08 43C51.76 43 51.6 42.84 51.6 42.52V25.432C51.6 24.568 51.568 23.672 51.504 22.744C51.472 21.784 51.392 20.92 51.264 20.152C51.2 19.768 51.376 19.576 51.792 19.576H54.672C54.96 19.576 55.12 19.688 55.152 19.912C55.216 20.392 55.296 20.904 55.392 21.448C55.488 21.992 55.552 22.552 55.584 23.128C57.024 21.688 58.384 20.648 59.664 20.008C60.944 19.336 62.32 19 63.792 19C65.424 19 66.736 19.384 67.728 20.152C68.752 20.888 69.472 21.992 69.888 23.464C71.424 21.896 72.848 20.76 74.16 20.056C75.472 19.352 76.896 19 78.432 19C80.576 19 82.192 19.672 83.28 21.016C84.4 22.36 84.96 24.344 84.96 26.968V42.52C84.96 42.84 84.8 43 84.48 43H81.36C81.04 43 80.88 42.84 80.88 42.52V27.208C80.88 25.672 80.592 24.52 80.016 23.752C79.472 22.984 78.608 22.6 77.424 22.6C76.368 22.6 75.28 22.936 74.16 23.608C73.072 24.248 71.792 25.272 70.32 26.68V42.52C70.32 42.84 70.16 43 69.84 43H66.72C66.4 43 66.24 42.84 66.24 42.52V27.208C66.24 25.672 65.952 24.52 65.376 23.752C64.832 22.984 63.968 22.6 62.784 22.6C61.728 22.6 60.64 22.936 59.52 23.608C58.432 24.248 57.152 25.272 55.68 26.68V42.52C55.68 42.84 55.52 43 55.2 43H52.08ZM105.731 43C105.539 43 105.411 42.936 105.347 42.808C105.283 42.68 105.219 42.52 105.155 42.328C105.123 42.072 105.043 41.528 104.915 40.696C104.819 39.832 104.755 39.064 104.723 38.392L104.579 36.568V27.016C104.579 25.416 104.259 24.28 103.619 23.608C102.979 22.936 101.859 22.6 100.259 22.6C97.3789 22.6 95.9389 23.592 95.9389 25.576C95.9389 25.896 95.7949 26.056 95.5069 26.056H92.3389C92.0189 26.056 91.8429 25.752 91.8109 25.144C91.6509 23.32 92.3549 21.848 93.9229 20.728C95.5229 19.576 97.6829 19 100.403 19C103.187 19 105.251 19.656 106.595 20.968C107.971 22.28 108.659 24.264 108.659 26.92V37.192C108.659 38.312 108.691 39.32 108.755 40.216C108.819 41.08 108.899 41.832 108.995 42.472C109.059 42.824 108.899 43 108.515 43H105.731ZM96.5629 43.576C94.7069 43.576 93.2829 43.016 92.2909 41.896C91.3309 40.776 90.8509 39.144 90.8509 37C90.8509 35.336 91.1709 33.976 91.8109 32.92C92.4829 31.864 93.5389 31.048 94.9789 30.472C96.4509 29.896 98.4029 29.512 100.835 29.32L105.347 28.936V32.056L100.739 32.44C98.5309 32.632 97.0109 33.032 96.1789 33.64C95.3469 34.248 94.9309 35.272 94.9309 36.712C94.9309 37.8 95.1549 38.616 95.6029 39.16C96.0509 39.704 96.7229 39.976 97.6189 39.976C98.6749 39.976 99.7789 39.624 100.931 38.92C102.083 38.184 103.603 36.84 105.491 34.888V38.488C104.371 39.704 103.315 40.696 102.323 41.464C101.363 42.2 100.419 42.728 99.4909 43.048C98.5629 43.4 97.5869 43.576 96.5629 43.576ZM116.346 43C116.026 43 115.866 42.84 115.866 42.52V25.288C115.866 24.392 115.834 23.528 115.77 22.696C115.738 21.832 115.658 20.968 115.53 20.104C115.466 19.752 115.626 19.576 116.01 19.576H118.938C119.258 19.576 119.434 19.72 119.466 20.008C119.594 20.616 119.69 21.32 119.754 22.12C119.818 22.888 119.85 23.544 119.85 24.088L119.946 26.632V42.52C119.946 42.84 119.786 43 119.466 43H116.346ZM119.418 28.072L119.322 24.136C119.994 23.144 120.762 22.264 121.626 21.496C122.522 20.728 123.418 20.12 124.314 19.672C125.242 19.224 126.09 19 126.858 19C127.434 19 127.866 19.048 128.154 19.144C128.41 19.208 128.554 19.368 128.586 19.624C128.65 20.296 128.666 20.984 128.634 21.688C128.634 22.392 128.586 23.064 128.49 23.704C128.426 24.056 128.218 24.184 127.866 24.088C127.61 24.024 127.338 23.976 127.05 23.944C126.762 23.912 126.458 23.896 126.138 23.896C125.338 23.896 124.538 24.072 123.738 24.424C122.938 24.776 122.17 25.272 121.434 25.912C120.698 26.52 120.026 27.24 119.418 28.072ZM147.674 51.88C147.354 51.88 147.194 51.72 147.194 51.4V23.128C146.394 22.968 145.53 22.84 144.602 22.744C143.674 22.648 142.858 22.6 142.154 22.6C140.01 22.6 138.458 23.128 137.498 24.184C136.538 25.208 136.058 26.856 136.058 29.128V34.408C136.058 36.36 136.362 37.784 136.97 38.68C137.61 39.544 138.618 39.976 139.994 39.976C141.146 39.976 142.298 39.672 143.45 39.064C144.602 38.456 146.074 37.368 147.866 35.8L147.722 39.688C146.25 41.064 144.826 42.056 143.45 42.664C142.074 43.272 140.618 43.576 139.082 43.576C136.682 43.576 134.89 42.84 133.706 41.368C132.554 39.896 131.978 37.656 131.978 34.648V28.744C131.978 25.512 132.794 23.08 134.426 21.448C136.058 19.816 138.506 19 141.77 19C142.954 19 144.026 19.08 144.986 19.24C145.946 19.4 146.922 19.576 147.914 19.768C148.906 19.96 150.026 20.104 151.274 20.2V51.4C151.274 51.72 151.114 51.88 150.794 51.88H147.674ZM164.811 43.576C162.763 43.576 161.195 42.888 160.107 41.512C159.019 40.136 158.475 38.152 158.475 35.56V20.056C158.475 19.736 158.635 19.576 158.955 19.576H162.075C162.395 19.576 162.555 19.736 162.555 20.056V35.368C162.555 36.936 162.827 38.104 163.371 38.872C163.947 39.608 164.827 39.976 166.011 39.976C167.195 39.976 168.379 39.608 169.563 38.872C170.779 38.136 172.283 36.856 174.075 35.032L173.979 38.824C172.955 39.88 171.931 40.76 170.907 41.464C169.883 42.168 168.859 42.696 167.835 43.048C166.843 43.4 165.835 43.576 164.811 43.576ZM174.411 43C174.059 43 173.867 42.84 173.835 42.52C173.739 41.912 173.659 41.288 173.595 40.648C173.531 40.008 173.483 39.352 173.451 38.68L173.211 36.664V20.056C173.211 19.736 173.371 19.576 173.691 19.576H176.811C177.131 19.576 177.291 19.736 177.291 20.056V37.144C177.291 38.008 177.307 38.904 177.339 39.832C177.403 40.76 177.499 41.656 177.627 42.52C177.691 42.84 177.515 43 177.099 43H174.411ZM184.971 43C184.651 43 184.491 42.84 184.491 42.52V20.056C184.491 19.736 184.651 19.576 184.971 19.576H188.091C188.411 19.576 188.571 19.736 188.571 20.056V42.52C188.571 42.84 188.411 43 188.091 43H184.971ZM186.555 15.64C185.627 15.64 184.955 15.4 184.539 14.92C184.123 14.408 183.915 13.768 183.915 13V12.52C183.915 11.752 184.123 11.128 184.539 10.648C184.955 10.136 185.627 9.88 186.555 9.88C187.483 9.88 188.155 10.136 188.571 10.648C188.987 11.128 189.195 11.752 189.195 12.52V13C189.195 13.768 188.987 14.408 188.571 14.92C188.155 15.4 187.483 15.64 186.555 15.64ZM196.268 43C195.948 43 195.788 42.84 195.788 42.52V10.696C195.788 10.376 195.948 10.216 196.268 10.216H199.388C199.708 10.216 199.868 10.376 199.868 10.696V42.52C199.868 42.84 199.708 43 199.388 43H196.268ZM207.564 43C207.244 43 207.084 42.84 207.084 42.52V10.696C207.084 10.376 207.244 10.216 207.564 10.216H210.684C211.004 10.216 211.164 10.376 211.164 10.696V42.52C211.164 42.84 211.004 43 210.684 43H207.564Z" fill="black" fill-opacity="0.2"/>
    <path d="M40 39H30V49H0V19H10V9H40V39ZM4.7998 33.7998V43.7998H14.7998V33.7998H4.7998ZM14.7998 33.7998H24.7998V23.7998H14.7998V33.7998ZM24.7998 23.7998H34.7998V13.7998H24.7998V23.7998Z" fill="black"/>
</svg>
