<svg width="238" height="48" viewBox="0 0 238 48" fill="none" xmlns="http://www.w3.org/2000/svg">
<path d="M19.8649 5.83784C19.8649 7.40513 18.5943 8.67567 17.027 8.67567C15.4597 8.67567 14.1892 7.40513 14.1892 5.83784C14.1892 4.27054 15.4597 3 17.027 3C18.5943 3 19.8649 4.27054 19.8649 5.83784Z" fill="#F25623"/>
<path d="M14.1892 16.6216C11.3828 16.6216 8.6395 17.4538 6.3061 19.0129C3.9727 20.5721 2.15404 22.7881 1.08009 25.3808C0.00614798 27.9736 -0.274845 30.8265 0.272648 33.579C0.82014 36.3314 2.17153 38.8597 4.15592 40.8441C6.14032 42.8285 8.66859 44.1799 11.421 44.7273C14.1735 45.2748 17.0264 44.9938 19.6192 43.9199C22.2119 42.846 24.4279 41.0273 25.9871 38.6939C27.5462 36.3605 28.3784 33.6172 28.3784 30.8108C26.3769 28.9146 25.1374 28.8928 22.7027 30.8108C22.7027 32.4946 22.2034 34.1406 21.2679 35.5407C20.3324 36.9407 19.0028 38.0319 17.4472 38.6763C15.8915 39.3206 14.1797 39.4892 12.5283 39.1607C10.8768 38.8322 9.35987 38.0214 8.16923 36.8308C6.97859 35.6401 6.16776 34.1232 5.83927 32.4717C5.51077 30.8202 5.67937 29.1085 6.32373 27.5528C6.9681 25.9972 8.0593 24.6676 9.45934 23.7321C10.8594 22.7966 12.5054 22.2973 14.1892 22.2973V16.6216Z" fill="#F25623"/>
<path d="M14.1892 10.9459H19.8649V26.8378C19.8649 28.4051 18.5943 29.6757 17.027 29.6757C15.4597 29.6757 14.1892 28.4051 14.1892 26.8378V10.9459Z" fill="#F25623"/>
<path d="M35.88 14.88H31.04V10.12H35.88V14.88ZM35.76 39H31.16V18.72H35.76V39ZM52.0175 22.6C51.3508 22.6 50.5908 22.76 49.7375 23.08C48.8842 23.4 47.8708 24.0267 46.6975 24.96V39H42.0975V18.72H46.4575V21.44C47.7108 20.3467 48.8975 19.56 50.0175 19.08C51.1375 18.5733 52.2708 18.32 53.4175 18.32C55.3642 18.32 56.8442 18.9467 57.8575 20.2C58.8708 21.4267 59.3775 23.16 59.3775 25.4V39H54.7775V25.96C54.7775 23.72 53.8575 22.6 52.0175 22.6ZM69.7369 28.24C69.7369 30.1867 70.1635 31.7867 71.0169 33.04C71.8702 34.2667 73.2702 34.88 75.2169 34.88C76.0169 34.88 76.8435 34.7733 77.6969 34.56C78.5769 34.3467 79.6569 33.9867 80.9369 33.48L82.4169 37.64C80.9769 38.28 79.6435 38.7333 78.4169 39C77.2169 39.2667 76.0569 39.4 74.9369 39.4C72.6969 39.4 70.8169 38.92 69.2969 37.96C67.8035 37 66.6835 35.68 65.9369 34C65.1902 32.32 64.8169 30.4 64.8169 28.24V22.52C64.8169 20.36 65.1902 18.44 65.9369 16.76C66.6835 15.08 67.8035 13.7733 69.2969 12.84C70.8169 11.88 72.6969 11.4 74.9369 11.4C76.0302 11.4 77.1635 11.5333 78.3369 11.8C79.5102 12.04 80.7902 12.4667 82.1769 13.08L80.6969 17.32C79.4702 16.8133 78.4435 16.4533 77.6169 16.24C76.7902 16.0267 75.9902 15.92 75.2169 15.92C73.2702 15.92 71.8702 16.5333 71.0169 17.76C70.1635 18.9867 69.7369 20.5733 69.7369 22.52V28.24ZM102.643 27.64V30.04C102.643 32.8667 101.869 35.1333 100.323 36.84C98.7761 38.5467 96.5895 39.4 93.7628 39.4C90.9361 39.4 88.7495 38.5467 87.2028 36.84C85.6561 35.1333 84.8828 32.8667 84.8828 30.04V27.64C84.8828 24.8133 85.6428 22.56 87.1628 20.88C88.7095 19.1733 90.9095 18.32 93.7628 18.32C96.6161 18.32 98.8028 19.1733 100.323 20.88C101.869 22.56 102.643 24.8133 102.643 27.64ZM97.9228 27.64C97.9228 26.0133 97.5628 24.7467 96.8428 23.84C96.1228 22.9067 95.0961 22.44 93.7628 22.44C92.4295 22.44 91.4028 22.9067 90.6828 23.84C89.9628 24.7467 89.6028 26.0133 89.6028 27.64V30.04C89.6028 31.6667 89.9628 32.9467 90.6828 33.88C91.4028 34.8133 92.4295 35.28 93.7628 35.28C95.0961 35.28 96.1228 34.8133 96.8428 33.88C97.5628 32.9467 97.9228 31.6667 97.9228 30.04V27.64ZM117.721 22.6C117.054 22.6 116.294 22.76 115.441 23.08C114.587 23.4 113.574 24.0267 112.401 24.96V39H107.801V18.72H112.161V21.44C113.414 20.3467 114.601 19.56 115.721 19.08C116.841 18.5733 117.974 18.32 119.121 18.32C121.067 18.32 122.547 18.9467 123.561 20.2C124.574 21.4267 125.081 23.16 125.081 25.4V39H120.481V25.96C120.481 23.72 119.561 22.6 117.721 22.6ZM143.36 38.32C142.667 38.64 141.867 38.8933 140.96 39.08C140.053 39.2933 139.133 39.4 138.2 39.4C136.653 39.4 135.413 39.08 134.48 38.44C133.547 37.8 132.867 36.9067 132.44 35.76C132.04 34.6133 131.84 33.3067 131.84 31.84V22.72H128.56V18.72H131.84V13.44H136.44V18.72H142.76V22.72H136.44V31.84C136.44 33.0667 136.667 33.92 137.12 34.4C137.6 34.8533 138.28 35.08 139.16 35.08C139.587 35.08 140.04 35.04 140.52 34.96C141.027 34.8533 141.587 34.68 142.2 34.44L143.36 38.32ZM162.458 37.84C161.072 38.4 159.765 38.8 158.538 39.04C157.312 39.28 156.152 39.4 155.058 39.4C152.045 39.4 149.765 38.5467 148.218 36.84C146.672 35.1333 145.898 32.8667 145.898 30.04V27.64C145.898 25.7467 146.245 24.1067 146.938 22.72C147.632 21.3333 148.618 20.2533 149.898 19.48C151.178 18.7067 152.685 18.32 154.418 18.32C155.832 18.32 157.152 18.6133 158.378 19.2C159.632 19.76 160.645 20.6533 161.418 21.88C162.218 23.08 162.618 24.6267 162.618 26.52C162.618 27.08 162.578 27.68 162.498 28.32C162.418 28.9333 162.285 29.5867 162.098 30.28H150.338C150.392 31.9333 150.805 33.1733 151.578 34C152.352 34.8267 153.592 35.24 155.298 35.24C156.205 35.24 157.138 35.1333 158.098 34.92C159.085 34.7067 160.098 34.3867 161.138 33.96L162.458 37.84ZM154.418 22.2C153.192 22.2 152.232 22.6 151.538 23.4C150.872 24.1733 150.485 25.2933 150.378 26.76H158.058C158.085 26.6267 158.098 26.5067 158.098 26.4C158.098 26.2667 158.098 26.1467 158.098 26.04C158.098 24.76 157.738 23.8 157.018 23.16C156.298 22.52 155.432 22.2 154.418 22.2ZM177.838 22.6C177.171 22.6 176.411 22.76 175.558 23.08C174.704 23.4 173.691 24.0267 172.518 24.96V39H167.918V18.72H172.278V21.44C173.531 20.3467 174.718 19.56 175.838 19.08C176.958 18.5733 178.091 18.32 179.238 18.32C181.184 18.32 182.664 18.9467 183.678 20.2C184.691 21.4267 185.198 23.16 185.198 25.4V39H180.598V25.96C180.598 23.72 179.678 22.6 177.838 22.6ZM203.477 38.32C202.784 38.64 201.984 38.8933 201.077 39.08C200.171 39.2933 199.251 39.4 198.317 39.4C196.771 39.4 195.531 39.08 194.597 38.44C193.664 37.8 192.984 36.9067 192.557 35.76C192.157 34.6133 191.957 33.3067 191.957 31.84V22.72H188.677V18.72H191.957V13.44H196.557V18.72H202.877V22.72H196.557V31.84C196.557 33.0667 196.784 33.92 197.237 34.4C197.717 34.8533 198.397 35.08 199.277 35.08C199.704 35.08 200.157 35.04 200.637 34.96C201.144 34.8533 201.704 34.68 202.317 34.44L203.477 38.32Z" fill="#171717"/>
<path d="M225.68 39.2C224.587 39.2 223.68 38.9333 222.96 38.4C222.24 37.84 221.813 37.1067 221.68 36.2C220.24 37.48 218.973 38.3333 217.88 38.76C216.787 39.1867 215.76 39.4 214.8 39.4C213.093 39.4 211.827 38.8533 211 37.76C210.2 36.64 209.8 35.3067 209.8 33.76C209.8 32.72 209.987 31.7867 210.36 30.96C210.76 30.1333 211.413 29.48 212.32 29C213.227 28.4933 214.467 28.24 216.04 28.24C216.76 28.24 217.6 28.2933 218.56 28.4C219.52 28.48 220.453 28.6 221.36 28.76V25.88C221.36 24.1467 221.027 22.96 220.36 22.32C219.693 21.6533 218.653 21.32 217.24 21.32C216.28 21.32 215.333 21.4533 214.4 21.72C213.467 21.96 212.493 22.32 211.48 22.8L210.64 20.84C211.733 20.28 212.813 19.8533 213.88 19.56C214.973 19.2667 216.093 19.12 217.24 19.12C219.027 19.12 220.373 19.4133 221.28 20C222.213 20.56 222.853 21.32 223.2 22.28C223.547 23.24 223.72 24.3067 223.72 25.48V34.52C223.72 35.2667 223.84 35.8667 224.08 36.32C224.347 36.7733 224.853 37 225.6 37H226.08V39.2H225.68ZM212.28 33.76C212.28 34.8267 212.52 35.68 213 36.32C213.507 36.96 214.227 37.28 215.16 37.28C215.907 37.28 216.773 37.04 217.76 36.56C218.773 36.08 219.973 35.2133 221.36 33.96V30.88C220.427 30.72 219.467 30.6 218.48 30.52C217.52 30.4133 216.72 30.36 216.08 30.36C214.747 30.36 213.773 30.64 213.16 31.2C212.573 31.7333 212.28 32.5867 212.28 33.76ZM233.815 13.96H230.935V11.04H233.815V13.96ZM233.575 39H231.175V19.52H233.575V39Z" fill="#4D4D4D"/>
</svg>
